<svg color="hsl(231, 36%, 63%)" style="display: inline-block; stroke: currentcolor; fill: currentcolor; width: 20px; height: 20px; transition: color 350ms ease-in-out 0s;" viewBox="0 0 1024 1024"><path d="M998.502 580.71c-2.443-0.592-5.249-0.931-8.133-0.931-8.31 0-15.962 2.816-22.054 7.546l0.082-0.061c-33.072 28.316-71.69 51.369-113.834 67.223l-2.646 0.873c-38.294 14.92-82.622 23.566-128.971 23.566-1.117 0-2.232-0.005-3.347-0.015l0.17 0.001c-0.072 0-0.158 0-0.244 0-106.229 0-202.406-43.044-272.039-112.641l0.001 0.001c-69.535-69.621-112.538-165.756-112.538-271.935 0-0.086 0-0.172 0-0.258l-0 0.014c0-44.544 7.834-87.706 20.992-126.976 14.336-41.83 35.328-79.821 62.771-112.486 4.61-5.677 7.401-12.993 7.401-20.961 0-10.56-4.903-19.974-12.557-26.092l-0.067-0.052c-6.010-4.669-13.662-7.485-21.972-7.485-2.885 0-5.69 0.339-8.378 0.98l0.245-0.049c-111.206 30.106-208.026 96.819-277.402 185.856-66.129 85.874-105.984 194.955-105.984 313.345 0 0.252 0 0.503 0.001 0.754l-0-0.039c0 142.694 57.6 272.23 151.808 366.438 93.147 93.77 222.161 151.811 364.732 151.811 0.582 0 1.164-0.001 1.745-0.003l-0.090 0c120.422 0 231.629-41.882 320.614-111.258 89.774-70.989 154.869-169.675 182.517-283.034l0.728-3.532c0.938-2.862 1.479-6.156 1.479-9.576 0-15.153-10.618-27.827-24.819-30.987l-0.211-0.039z"></path></svg>