<svg color="hsl(232, 23%, 61%)" style="display: inline-block; stroke: currentcolor; fill: currentcolor; width: 20px; height: 20px; transition: color 350ms ease-in-out 0s;" viewBox="0 0 1024 1024"><path d="M502.63 828.416c25.116 0.012 45.825 18.859 48.77 43.182l0.023 0.236 0.358 5.734v78.592c-0.107 27.065-22.072 48.965-49.152 48.965-25.059 0-45.738-18.752-48.769-42.989l-0.025-0.241-0.307-5.734v-78.592c0-27.136 22.016-49.152 49.152-49.152zM272.23 733.030c17.766 17.715 19.098 45.568 4.096 64.819l-4.096 4.608-55.552 55.654c-8.883 8.824-21.123 14.277-34.636 14.277-27.146 0-49.152-22.006-49.152-49.152 0-11.343 3.843-21.789 10.297-30.107l-0.083 0.112 4.096-4.608 55.603-55.603c8.887-8.897 21.171-14.401 34.739-14.401s25.852 5.504 34.739 14.401l0 0zM802.458 733.030l55.603 55.603c8.891 8.891 14.389 21.173 14.389 34.739 0 27.133-21.996 49.129-49.129 49.129-13.567 0-25.849-5.499-34.739-14.389l-55.552-55.603c-8.895-8.889-14.397-21.171-14.397-34.739 0-27.123 21.988-49.111 49.111-49.111 13.555 0 25.828 5.492 34.714 14.372l-0-0zM502.63 250.88c138.996 0.175 251.627 112.806 251.802 251.785l0 0.016c-0.175 138.996-112.806 251.627-251.785 251.802l-0.016 0c-138.974-0.204-251.576-112.824-251.75-251.785l-0-0.017c0.175-138.978 112.777-251.598 251.731-251.802l0.020-0zM956.16 453.53c0.473-0.016 1.028-0.026 1.586-0.026 27.146 0 49.152 22.006 49.152 49.152s-22.006 49.152-49.152 49.152c-0.558 0-1.113-0.009-1.667-0.028l0.081 0.002h-78.592c-27.146 0-49.152-22.006-49.152-49.152s22.006-49.152 49.152-49.152v0h78.592zM127.744 453.53c26.899 0.323 48.58 22.204 48.58 49.149 0 24.922-18.549 45.513-42.594 48.718l-0.251 0.027-5.734 0.358h-78.592c-27.065-0.107-48.965-22.072-48.965-49.152 0-25.059 18.752-45.738 42.989-48.769l0.241-0.025 5.734-0.307h78.541zM858.061 147.2c8.885 8.893 14.38 21.174 14.38 34.739s-5.495 25.846-14.38 34.74l0-0-55.603 55.603c-9.010 9.753-21.865 15.839-36.141 15.839-27.146 0-49.152-22.006-49.152-49.152 0-14.289 6.097-27.154 15.832-36.135l0.034-0.031 55.552-55.603c8.893-8.885 21.174-14.38 34.739-14.38s25.846 5.495 34.74 14.38l-0-0zM212.070 143.104l4.608 4.096 55.603 55.603c8.928 8.9 14.452 21.211 14.452 34.811 0 27.146-22.006 49.152-49.152 49.152-11.444 0-21.975-3.911-30.328-10.469l0.106 0.080-4.608-4.096-55.603-55.603c-9.029-8.909-14.621-21.28-14.621-34.958 0-27.118 21.983-49.101 49.101-49.101 11.522 0 22.117 3.969 30.493 10.613l-0.102-0.078zM502.63 0c27.136 0 49.152 22.016 49.152 49.152v78.592c0 27.146-22.006 49.152-49.152 49.152s-49.152-22.006-49.152-49.152h0v-78.592c0-27.136 22.016-49.152 49.152-49.152z"></path></svg>